<svg width="121" height="20" viewBox="0 0 121 20" fill="none" xmlns="http://www.w3.org/2000/svg">
<path d="M113.84 9.41406C112.69 9.41406 112.03 10.2416 112.03 11.7621C112.03 13.2826 112.692 14.1101 113.84 14.1101C114.988 14.1101 115.639 13.2826 115.639 11.7621C115.639 10.2416 114.977 9.41406 113.84 9.41406Z" fill="#6200EA"/>
<path d="M119.396 3.6836H77.0209C76.8224 3.68314 76.6258 3.72184 76.4424 3.79747C76.2589 3.87311 76.0921 3.98419 75.9516 4.12436C75.8111 4.26453 75.6997 4.43104 75.6236 4.61434C75.5476 4.79765 75.5084 4.99416 75.5084 5.19262V18.2647C75.5084 18.6649 75.6674 19.0487 75.9504 19.3317C76.2334 19.6147 76.6172 19.7737 77.0174 19.7737H119.393C119.591 19.7742 119.788 19.7355 119.972 19.6598C120.155 19.5842 120.322 19.4731 120.462 19.3329C120.603 19.1928 120.714 19.0263 120.79 18.843C120.866 18.6596 120.905 18.4631 120.905 18.2647V5.19262C120.905 4.7924 120.746 4.40858 120.463 4.12558C120.18 3.84258 119.797 3.6836 119.396 3.6836ZM82.6122 11.1816C84.4511 11.5264 85.1464 12.0918 85.1464 13.2296C85.1464 14.5122 83.9776 15.2777 82.3444 15.2777C80.7929 15.2777 79.9137 14.8329 79.3344 14.0054L80.1826 12.9917C80.7205 13.8813 81.3721 14.1088 82.2915 14.1088C83.1708 14.1088 83.6466 13.8296 83.6466 13.3124C83.6466 12.94 83.2857 12.7228 82.1525 12.4952C80.255 12.1125 79.5309 11.5333 79.5309 10.3955C79.5309 9.18526 80.555 8.24399 82.3226 8.24399C83.5948 8.24399 84.4637 8.64739 85.1567 9.55763L84.1741 10.5196C83.8224 9.78519 83.2547 9.41282 82.3352 9.41282C81.4778 9.41282 81.0434 9.77485 81.0434 10.261C81.0411 10.7161 81.4135 10.9644 82.6122 11.1816ZM91.6836 9.49557H89.3976V15.1696H87.9702V9.49557H85.6716V8.34628H91.6801L91.6836 9.49557ZM98.5793 12.4837C98.5793 14.3456 97.5656 15.2765 95.6624 15.2765C93.7592 15.2765 92.7478 14.3467 92.7478 12.4849V8.34743H94.1752V12.4228C94.1752 13.5721 94.6614 14.1088 95.6693 14.1088C96.6772 14.1088 97.1484 13.571 97.1484 12.4228V8.34743H98.5862L98.5793 12.4837ZM102.886 15.1696H100.242V8.34743H102.886C105.027 8.34743 106.247 9.57832 106.247 11.7608C106.247 13.9433 105.027 15.1696 102.886 15.1696ZM109.113 15.1696H107.689V8.34743H109.116L109.113 15.1696ZM113.84 15.2731C111.812 15.2731 110.55 13.9491 110.55 11.7562C110.55 9.56338 111.815 8.23939 113.84 8.23939C115.865 8.23939 117.119 9.56338 117.119 11.7562C117.119 13.9491 115.867 15.2777 113.84 15.2777V15.2731Z" fill="#6200EA"/>
<path d="M102.813 9.48438H101.676V14.0356H102.813C104.117 14.0356 104.767 13.2311 104.767 11.76C104.767 10.2889 104.117 9.48438 102.813 9.48438Z" fill="#6200EA"/>
<path d="M16.567 7.86259C16.5691 7.69041 16.6384 7.52587 16.7602 7.40411C16.8819 7.28235 17.0465 7.21302 17.2186 7.21094H18.1116C18.2838 7.21302 18.4483 7.28235 18.5701 7.40411C18.6919 7.52587 18.7612 7.69041 18.7633 7.86259V14.2343C18.7633 15.4732 19.041 16.3984 19.5965 17.0098C20.152 17.6212 20.9603 17.9277 22.0215 17.9292C23.036 17.9292 23.8324 17.6228 24.4109 17.0098C24.9894 16.3969 25.2805 15.4717 25.2844 14.2343V7.86259C25.287 7.69059 25.3565 7.52639 25.4782 7.40475C25.5998 7.28312 25.764 7.2136 25.936 7.21094H26.829C27.0014 7.21244 27.1663 7.28158 27.2881 7.40346C27.41 7.52534 27.4792 7.69022 27.4807 7.86259V19.1096C27.4792 19.2819 27.41 19.4468 27.2881 19.5687C27.1663 19.6906 27.0014 19.7597 26.829 19.7612H25.936C25.764 19.7586 25.5998 19.689 25.4782 19.5674C25.3565 19.4458 25.287 19.2816 25.2844 19.1096V18.3614C24.9227 18.8123 24.4808 19.1926 23.9811 19.4831C23.4149 19.8279 22.641 20.0003 21.6595 20.0003C20.9501 20.0086 20.2456 19.8815 19.5839 19.6256C18.9665 19.3901 18.4085 19.0215 17.9497 18.5459C17.4908 18.0704 17.1423 17.4996 16.929 16.8742C16.6774 16.1424 16.5549 15.3724 16.567 14.5986V7.86259Z" fill="#6200EA"/>
<path d="M32.3273 4.65189C32.3252 4.82407 32.2559 4.98861 32.1341 5.11037C32.0124 5.23213 31.8478 5.30146 31.6756 5.30354H30.2965C30.1255 5.29968 29.9627 5.22957 29.8424 5.108C29.7221 4.98643 29.6538 4.8229 29.6517 4.65189V3.27274C29.6538 3.10056 29.7231 2.93602 29.8449 2.81427C29.9667 2.69251 30.1312 2.62318 30.3034 2.62109H31.6825C31.8547 2.62318 32.0193 2.69251 32.141 2.81427C32.2628 2.93602 32.3321 3.10056 32.3342 3.27274L32.3273 4.65189ZM32.0859 19.1089C32.0838 19.281 32.0145 19.4456 31.8928 19.5673C31.771 19.6891 31.6065 19.7584 31.4343 19.7605H30.5413C30.3691 19.7584 30.2046 19.6891 30.0828 19.5673C29.9611 19.4456 29.8917 19.281 29.8896 19.1089V7.86187C29.8917 7.68969 29.9611 7.52515 30.0828 7.40339C30.2046 7.28163 30.3691 7.21231 30.5413 7.21022H31.4343C31.6065 7.21231 31.771 7.28163 31.8928 7.40339C32.0145 7.52515 32.0838 7.68969 32.0859 7.86187V19.1089Z" fill="#6200EA"/>
<path d="M36.6957 19.1093C36.6936 19.2815 36.6243 19.446 36.5025 19.5678C36.3808 19.6895 36.2162 19.7589 36.0441 19.761H35.151C34.9789 19.7589 34.8143 19.6895 34.6926 19.5678C34.5708 19.446 34.5015 19.2815 34.4994 19.1093V3.27665C34.5015 3.10447 34.5708 2.93993 34.6926 2.81817C34.8143 2.69641 34.9789 2.62709 35.151 2.625H36.0441C36.2162 2.62709 36.3808 2.69641 36.5025 2.81817C36.6243 2.93993 36.6936 3.10447 36.6957 3.27665V19.1093Z" fill="#6200EA"/>
<path d="M43.9846 6.96933C44.9806 6.96933 45.7771 7.14211 46.374 7.48766C46.8936 7.76996 47.3528 8.15145 47.7255 8.61052V3.27665C47.7276 3.10447 47.7969 2.93993 47.9187 2.81817C48.0405 2.69641 48.205 2.62709 48.3772 2.625H49.2702C49.4424 2.62709 49.6069 2.69641 49.7287 2.81817C49.8504 2.93993 49.9197 3.10447 49.9218 3.27665V19.1093C49.9197 19.2815 49.8504 19.446 49.7287 19.5678C49.6069 19.6895 49.4424 19.7589 49.2702 19.761H48.3772C48.205 19.7589 48.0405 19.6895 47.9187 19.5678C47.7969 19.446 47.7276 19.2815 47.7255 19.1093V18.3611C47.354 18.8391 46.8835 19.2311 46.3464 19.5104C45.7533 19.8368 44.9661 20 43.9846 20C43.2616 20.0061 42.5443 19.8706 41.8733 19.6012C41.2315 19.3419 40.6516 18.9503 40.1712 18.4519C39.6726 17.9284 39.2793 17.3139 39.0127 16.6418C38.7099 15.8799 38.537 15.0726 38.5013 14.2535C38.4852 14.0122 38.4772 13.7505 38.4772 13.4686C38.4772 13.1882 38.4852 12.9261 38.5013 12.6848C38.5354 11.8656 38.7068 11.0579 39.0081 10.2954C39.2754 9.62907 39.6705 9.02153 40.1712 8.50708C40.6546 8.01601 41.234 7.62985 41.8733 7.37273C42.544 7.10174 43.2612 6.96469 43.9846 6.96933ZM47.7255 14.5236C47.7416 14.2823 47.7497 13.9643 47.7497 13.5697C47.7497 13.1751 47.7416 12.8575 47.7255 12.617C47.6773 11.4746 47.3355 10.5934 46.7004 9.97358C46.0652 9.35373 45.2404 9.04419 44.2259 9.04495C43.1678 9.04495 42.3323 9.38284 41.7193 10.0586C41.1064 10.7344 40.7685 11.6515 40.7057 12.81C40.6896 13.2606 40.6896 13.7111 40.7057 14.1616C40.77 15.3201 41.1079 16.2372 41.7193 16.913C42.3308 17.5888 43.1663 17.9282 44.2259 17.9313C45.222 17.9313 46.0426 17.6248 46.6877 17.0119C47.3329 16.3989 47.6788 15.5695 47.7255 14.5236Z" fill="#6200EA"/>
<path d="M51.756 12.2793C51.8163 11.562 51.9977 10.8602 52.2928 10.2037C52.5698 9.57883 52.9536 9.00711 53.4271 8.51421C53.9026 8.02537 54.4733 7.63929 55.1039 7.37986C55.7971 7.09848 56.5396 6.95896 57.2876 6.96956C58.0839 6.95659 58.8749 7.09989 59.6161 7.39135C60.2818 7.66217 60.8784 8.07886 61.3618 8.61075C61.8614 9.17071 62.2394 9.82815 62.4721 10.5416C62.7385 11.3575 62.8689 12.2117 62.8582 13.07V13.7217C62.8561 13.8938 62.7868 14.0584 62.665 14.1801C62.5433 14.3019 62.3787 14.3712 62.2066 14.3733H53.9018V14.5181C53.934 15.6122 54.2676 16.4528 54.9028 17.0397C55.538 17.6266 56.3314 17.9239 57.283 17.9315C58.168 17.9315 58.8315 17.8066 59.2736 17.5568C59.6748 17.34 60.0378 17.0589 60.3482 16.7248C60.4465 16.6194 60.5605 16.5299 60.6861 16.4593C60.8238 16.4034 60.9721 16.3787 61.1205 16.3869H61.8445C62.0241 16.3878 62.1966 16.4568 62.3272 16.5799C62.3949 16.6336 62.4465 16.705 62.4763 16.7861C62.5061 16.8672 62.513 16.9549 62.4962 17.0397C62.4258 17.3819 62.2861 17.7061 62.0859 17.9924C61.8248 18.374 61.4928 18.7017 61.1078 18.9578C60.6176 19.286 60.0805 19.5382 59.5149 19.706C58.7903 19.9171 58.0376 20.0163 57.283 20.0002C56.5374 20.0117 55.7976 19.8677 55.1108 19.5773C54.4808 19.3052 53.9106 18.9116 53.4329 18.4188C52.9477 17.914 52.5582 17.3252 52.2836 16.6811C51.9875 15.9874 51.8081 15.2496 51.7526 14.4974C51.6735 13.7601 51.6746 13.0164 51.756 12.2793ZM53.9041 12.3517H60.6849V12.2793C60.6849 11.2978 60.375 10.5132 59.7551 9.92554C59.1353 9.33787 58.3108 9.04442 57.2818 9.04518C56.837 9.04149 56.3953 9.1194 55.9785 9.27504C55.5862 9.42239 55.2257 9.6436 54.9166 9.92669C54.6065 10.2147 54.3598 10.5642 54.1925 10.953C54.0115 11.3724 53.9128 11.8226 53.9018 12.2793L53.9041 12.3517Z" fill="#6200EA"/>
<path d="M70.9435 7.21094C71.1166 7.21153 71.2826 7.28019 71.4056 7.40211C71.5286 7.52403 71.5987 7.68942 71.6008 7.86259V8.63491C71.5988 8.80709 71.5294 8.97163 71.4077 9.09339C71.2859 9.21515 71.1214 9.28447 70.9492 9.28656H69.5436C67.6971 9.28656 66.7738 10.2117 66.7738 12.0621V19.1096C66.7717 19.2817 66.7024 19.4463 66.5806 19.568C66.4589 19.6898 66.2943 19.7591 66.1222 19.7612H65.2292C65.057 19.7591 64.8924 19.6898 64.7707 19.568C64.6489 19.4463 64.5796 19.2817 64.5775 19.1096V7.86259C64.5796 7.69041 64.6489 7.52587 64.7707 7.40411C64.8924 7.28235 65.057 7.21302 65.2292 7.21094H66.1222C66.2943 7.21302 66.4589 7.28235 66.5806 7.40411C66.7024 7.52587 66.7717 7.69041 66.7738 7.86259V8.61078C67.0568 8.1618 67.4532 7.79548 67.9231 7.54883C68.3729 7.32357 68.9602 7.21094 69.685 7.21094H70.9435Z" fill="#6200EA"/>
<path fill-rule="evenodd" clip-rule="evenodd" d="M7.95668 0H0.00012207V19.7724H8.29112L8.44168 19.7713L8.59109 19.7667L8.73935 19.7609L8.88646 19.7529L9.03242 19.7414L9.17608 19.7276L9.31859 19.7127L9.4611 19.6943L9.60017 19.6736L9.73923 19.6506L9.876 19.6253L10.0116 19.5977L10.1461 19.5667L10.2782 19.5345L10.4093 19.5001L10.538 19.4621L10.6656 19.4231L10.792 19.3805L10.9161 19.3357L11.0379 19.2897L11.1586 19.2403L11.2781 19.1886L11.3954 19.1357L11.5103 19.0794L11.6241 19.0208L11.7344 18.9599L11.8447 18.8967L11.9516 18.8323L12.0574 18.7645L12.1608 18.6944L12.2631 18.622L12.3619 18.5473L12.4596 18.4714L12.555 18.3921L12.6481 18.3105L12.7389 18.2266L12.8285 18.1416L12.9147 18.0531L12.9986 17.9635L13.0814 17.8704L13.1607 17.7761L13.2388 17.6784L13.3135 17.5796L13.3859 17.4785L13.4572 17.3739L13.525 17.2681L13.5905 17.1601L13.6526 17.0498L13.7135 16.9383L13.7721 16.8234L13.8273 16.7061L13.8801 16.5866L13.9296 16.4659L13.9767 16.3429L14.0215 16.2177L14.064 16.0901L14.1042 15.9602L14.1399 15.8281L14.1744 15.6936L14.2054 15.558L14.233 15.4189L14.2594 15.2787L14.2812 15.1362L14.3008 14.9914L14.318 14.8443L14.3318 14.696L14.3421 14.5443L14.3502 14.3914L14.3548 14.2363L14.3559 14.0788L14.3525 13.8846L14.3444 13.6938L14.3307 13.5088L14.3123 13.3284L14.2881 13.1537L14.2583 12.9836L14.2249 12.8181L14.187 12.6572L14.1445 12.502L14.0985 12.3503L14.0479 12.2032L13.9928 12.0607L13.9353 11.9228L13.8732 11.7894L13.8089 11.6607L13.7411 11.5355L13.6698 11.4148L13.5963 11.2976L13.5204 11.1849L13.4411 11.0769L13.3607 10.9723L13.2768 10.8712L13.1929 10.7735L13.1055 10.6804L13.0182 10.5907L12.9285 10.5045L12.8377 10.4218L12.7458 10.3425L12.6527 10.2666L12.5596 10.1931L12.4665 10.1241L12.3723 10.0586L12.278 9.9954L12.1838 9.93564L11.9964 9.82416L11.8114 9.72417L11.6298 9.63567L11.7137 9.5943L11.8884 9.49891L12.0677 9.38513L12.2504 9.25526L12.3424 9.18285L12.4343 9.10815L12.5263 9.0277L12.6182 8.9438L12.709 8.8553L12.7998 8.76336L12.8883 8.66682L12.9768 8.56568L13.063 8.46224L13.1469 8.35306L13.2285 8.24043L13.3089 8.12435L13.3859 8.00368L13.4606 7.87955L13.533 7.75083L13.6009 7.61866L13.6652 7.48305L13.7261 7.34283L13.7836 7.19802L13.8353 7.05091L13.8836 6.89921L13.9273 6.74405L13.9663 6.58545L13.9985 6.42225L14.0261 6.25675L14.0479 6.08551L14.064 5.91196L14.0744 5.73497L14.0778 5.55453L14.0755 5.40972L14.0721 5.26606L14.0652 5.1247L14.056 4.98563L14.0433 4.84657L14.0284 4.7098L14.0112 4.57534L13.9905 4.44202L13.9675 4.30985L13.941 4.17998L13.9135 4.05126L13.8824 3.92369L13.848 3.79841L13.8123 3.67544L13.7732 3.55361L13.7319 3.43409L13.6882 3.31571L13.6411 3.19848L13.5928 3.0847L13.5399 2.97092L13.4859 2.86059L13.4296 2.75141L13.3698 2.64337L13.3089 2.53879L13.2446 2.4342L13.1779 2.33307L13.109 2.23308L13.0366 2.13539L12.963 2.04L12.886 1.94575L12.8067 1.85381L12.7262 1.76416L12.6423 1.67567L12.5561 1.59062L12.4677 1.50672L12.3769 1.42512L12.2838 1.34582L12.1872 1.26767L12.0895 1.19297L11.9895 1.11941L11.8873 1.04816L11.7815 0.979198L11.6746 0.912539L11.5655 0.848178L11.454 0.786116L11.3402 0.726353L11.223 0.667739L11.1046 0.612573L10.9839 0.559706L10.8609 0.507988L10.7368 0.459717L10.6092 0.413746L10.4794 0.370072L10.3484 0.328698L10.2139 0.289622L10.0783 0.252844L9.94036 0.218366L9.80014 0.186185L9.65763 0.156304L9.51397 0.12987L9.36686 0.105735L9.2186 0.0838984L9.06804 0.0643604L8.91519 0.047121L8.76003 0.0333295L8.60373 0.0206873L8.44513 0.0114929L8.28423 0.00574647L8.12218 0.00114929L7.95668 0Z" fill="#6200EA"/>
</svg>
