<svg width="85" height="22" viewBox="0 0 85 22" fill="none" xmlns="http://www.w3.org/2000/svg">
<path d="M22.7736 11.0001C22.7736 4.92441 17.8492 0 11.7735 0C5.69785 0 0.773438 4.92441 0.773438 11.0001C0.773438 16.4911 4.79374 21.0418 10.0557 21.8675V14.1825H7.26498V11.0001H10.0557V8.57704C10.0557 5.8225 11.6951 4.29756 14.2086 4.29756C15.4141 4.29756 16.6738 4.51455 16.6738 4.51455V7.22086H15.2875C13.9193 7.22086 13.4973 8.07073 13.4973 8.93868V11.0001H16.5472L16.059 14.1825H13.4973V21.8675C18.7533 21.0418 22.7736 16.4911 22.7736 11.0001Z" fill="#237AEB"/>
<path d="M16.0528 14.1819L16.541 10.9994H13.4912V8.938C13.4912 8.07005 13.9191 7.22018 15.2813 7.22018H16.6676V4.51386C16.6676 4.51386 15.4079 4.29688 14.2024 4.29688C11.689 4.29688 10.0495 5.82182 10.0495 8.57635V10.9994H7.25879V14.1819H10.0495V21.8668C10.61 21.9573 11.1826 21.9994 11.7673 21.9994C12.352 21.9994 12.9246 21.9512 13.4851 21.8668V14.1819H16.0528Z" fill="white"/>
<path d="M32.2329 16.1884H30.1364V10.9621H28.7083V9.26054H30.1364V8.04975C30.1364 6.61496 30.768 5.58594 32.8588 5.58594C33.301 5.58594 33.9953 5.67507 33.9953 5.67507V7.25507H33.2661C32.5231 7.25507 32.233 7.48107 32.233 8.10589V9.26054H33.9675L33.813 10.9621H32.233L32.2329 16.1884ZM37.0434 9.12456C37.0128 9.12456 36.9814 9.12567 36.9503 9.12645C35.0063 9.12645 34.1169 10.5887 34.1169 12.6645C34.1169 15.2793 35.2706 16.3259 36.9655 16.3259C37.9352 16.3259 38.5723 15.9177 38.9595 15.156V16.1891H40.9536V9.26126H38.9595V10.3267C38.6433 9.64121 37.9884 9.13268 37.0434 9.12456ZM37.5504 10.7616C38.3669 10.7616 38.8569 11.3311 38.8569 12.2998L38.8588 13.2892C38.8588 13.9421 38.4541 14.706 37.5504 14.706C36.1611 14.706 36.1982 13.2059 36.1982 12.7062C36.1982 11.0256 36.9384 10.7616 37.5504 10.7616ZM41.7589 12.7256C41.7589 11.8837 41.7186 9.12907 45.3075 9.12907C46.7481 9.12907 47.3497 9.58713 47.3497 9.58713L46.8662 11.0867C46.8662 11.0867 46.2654 10.7559 45.4826 10.7559C44.4799 10.7559 43.8401 11.3372 43.8401 12.3598L43.8412 13.0931C43.8412 14.0758 44.4585 14.7318 45.4846 14.7318C46.1978 14.7318 46.8551 14.3979 46.8551 14.3979L47.3374 15.8661C47.3374 15.8661 46.7873 16.3271 45.3175 16.3271C41.9004 16.3271 41.7589 13.8557 41.7589 12.7256H41.7589ZM59.0416 9.12645C60.9856 9.12645 61.889 10.5887 61.889 12.6645C61.889 15.2793 60.7353 16.3259 59.0404 16.3259C58.0707 16.3259 57.3538 15.9178 56.9666 15.156V16.1891L54.9976 16.1883V5.79658L57.0882 5.61426V10.2328C57.3899 9.42478 58.3815 9.12645 59.0416 9.12645H59.0416ZM58.4555 10.7616C57.639 10.7616 57.0882 11.3311 57.0882 12.2998L57.0862 13.2892C57.085 13.9421 57.4677 14.706 58.4555 14.706C59.8447 14.706 59.8076 13.2059 59.8076 12.7062C59.8076 11.0256 59.0675 10.7616 58.4555 10.7616ZM50.9769 9.13218C48.772 9.13218 47.6079 10.3343 47.6079 12.4707V12.8677C47.6079 15.6405 49.2426 16.3544 51.1915 16.3544C53.0858 16.3544 53.9432 15.8245 53.9432 15.8245L53.552 14.4135C53.552 14.4135 52.5434 14.8427 51.4422 14.8427C50.3005 14.8427 49.8095 14.5517 49.6836 13.4545H54.1104V12.3226C54.1104 10.0051 52.8039 9.13213 50.9769 9.13213L50.9769 9.13218ZM51.03 10.545C51.7933 10.545 52.2878 11.0131 52.2607 12.0985H49.6874C49.7321 10.9561 50.2654 10.5451 51.03 10.5451V10.545ZM66.0575 9.12267C63.7932 9.12267 62.6012 10.3987 62.6012 12.6853C62.6012 15.8227 64.656 16.3278 66.0613 16.3278C68.1185 16.3278 69.4872 15.2202 69.4872 12.7138C69.4872 10.1051 67.9483 9.12267 66.0575 9.12267ZM66.029 10.7673C67.0246 10.7673 67.4192 11.5124 67.4192 12.3606V13.0899C67.4192 14.1174 66.8671 14.7117 66.0252 14.7117C65.2378 14.7117 64.6845 14.1558 64.6845 13.0899V12.3606C64.6845 11.2238 65.3429 10.7673 66.029 10.7673ZM73.6519 9.12267C71.3876 9.12267 70.1956 10.3987 70.1956 12.6853C70.1956 15.8227 72.2504 16.3278 73.6557 16.3278C75.7129 16.3278 77.0817 15.2202 77.0817 12.7138C77.0817 10.1051 75.5427 9.12267 73.6519 9.12267ZM73.6235 10.7673C74.6191 10.7673 75.0136 11.5124 75.0136 12.3606V13.0899C75.0136 14.1174 74.4615 14.7117 73.6197 14.7117C72.8323 14.7117 72.2789 14.1558 72.2789 13.0899V12.3606C72.2789 11.2238 72.9374 10.7673 73.6235 10.7673ZM77.8717 16.1884V5.79658L79.9683 5.61431V12.5796L82.0484 9.26059H84.2625L82.0926 12.6981L84.3461 16.1884H82.1256L79.9683 12.7993V16.1884H77.8717Z" fill="#237AEB"/>
</svg>
