<svg width="81" height="22" viewBox="0 0 81 22" fill="none" xmlns="http://www.w3.org/2000/svg">
<path d="M5.03896 13.2951L4.24752 16.1539L1.35484 16.2131C0.490351 14.6616 0 12.8865 0 11.0002C0 9.17613 0.458467 7.45601 1.27113 5.94141H1.27175L3.84705 6.39825L4.97519 8.87514C4.73907 9.5412 4.61038 10.2562 4.61038 11.0002C4.61047 11.8077 4.76163 12.5813 5.03896 13.2951Z" fill="#FBBB00"/>
<path d="M22.538 8.94531C22.6686 9.61073 22.7366 10.2979 22.7366 11.0002C22.7366 11.7878 22.6511 12.556 22.4881 13.297C21.9346 15.8185 20.4886 18.0203 18.4854 19.5784L18.4848 19.5778L15.241 19.4177L14.782 16.6447C16.1112 15.8904 17.15 14.71 17.6972 13.297H11.6182V8.94531H17.7858H22.538Z" fill="#518EF8"/>
<path d="M18.485 19.5776L18.4857 19.5782C16.5374 21.0934 14.0626 22 11.3686 22C7.03919 22 3.27513 19.6586 1.35498 16.2129L5.0391 13.2949C5.99915 15.7741 8.47085 17.539 11.3686 17.539C12.6141 17.539 13.7809 17.2132 14.7822 16.6445L18.485 19.5776Z" fill="#28B446"/>
<path d="M18.6249 2.5324L14.9421 5.44981C13.9058 4.82307 12.6809 4.46101 11.3685 4.46101C8.40523 4.46101 5.8873 6.30682 4.97534 8.87493L1.27186 5.9412H1.27124C3.16328 2.41153 6.97481 0 11.3685 0C14.1269 0 16.6561 0.950726 18.6249 2.5324Z" fill="#F14336"/>
<path d="M37.2449 9.90173V11.5844H41.2668C41.1437 12.5283 40.829 13.2191 40.3502 13.7047C39.762 14.293 38.8454 14.9359 37.2449 14.9359C34.7688 14.9359 32.8331 12.9387 32.8331 10.4626C32.8331 7.98654 34.7688 5.98927 37.2449 5.98927C38.5787 5.98927 39.5568 6.51595 40.275 7.19311L41.4583 6.00979C40.4597 5.03852 39.119 4.2998 37.2449 4.2998C33.8523 4.2998 31 7.06315 31 10.4558C31 13.8484 33.8523 16.6117 37.2449 16.6117C39.078 16.6117 40.4597 16.0098 41.5404 14.8881C42.6484 13.78 42.9973 12.2136 42.9973 10.9551C42.9973 10.5652 42.9699 10.2027 42.9084 9.90173H37.2449Z" fill="#63666A"/>
<path d="M48.0246 8.53418C45.8289 8.53418 44.0369 10.2031 44.0369 12.5082C44.0369 14.7927 45.8289 16.4822 48.0246 16.4822C50.2202 16.4822 52.0123 14.7996 52.0123 12.5082C52.0123 10.2031 50.2202 8.53418 48.0246 8.53418ZM48.0246 14.9159C46.8207 14.9159 45.7811 13.9241 45.7811 12.5082C45.7811 11.0786 46.8207 10.1005 48.0246 10.1005C49.2284 10.1005 50.2681 11.0786 50.2681 12.5082C50.2681 13.9241 49.2284 14.9159 48.0246 14.9159Z" fill="#63666A"/>
<path d="M67.5733 9.42337H67.5117C67.1218 8.95826 66.3694 8.53418 65.4187 8.53418C63.4351 8.53418 61.7046 10.2647 61.7046 12.5082C61.7046 14.738 63.4351 16.4822 65.4187 16.4822C66.3694 16.4822 67.1218 16.0581 67.5117 15.5793H67.5733V16.1334C67.5733 17.6518 66.7593 18.4658 65.4529 18.4658C64.3859 18.4658 63.7224 17.6997 63.4488 17.0499L61.9303 17.6792C62.3681 18.7326 63.524 20.0253 65.4529 20.0253C67.498 20.0253 69.2285 18.8215 69.2285 15.8871V8.73938H67.5733V9.42337ZM65.5692 14.9159C64.3653 14.9159 63.4488 13.8899 63.4488 12.5082C63.4488 11.106 64.3653 10.1005 65.5692 10.1005C66.7593 10.1005 67.6896 11.1265 67.6896 12.5219C67.6964 13.9104 66.7593 14.9159 65.5692 14.9159Z" fill="#63666A"/>
<path d="M56.9164 8.53418C54.7208 8.53418 52.9287 10.2031 52.9287 12.5082C52.9287 14.7927 54.7208 16.4822 56.9164 16.4822C59.112 16.4822 60.9041 14.7996 60.9041 12.5082C60.9041 10.2031 59.112 8.53418 56.9164 8.53418ZM56.9164 14.9159C55.7126 14.9159 54.6729 13.9241 54.6729 12.5082C54.6729 11.0786 55.7126 10.1005 56.9164 10.1005C58.1202 10.1005 59.1599 11.0786 59.1599 12.5082C59.1599 13.9241 58.1202 14.9159 56.9164 14.9159Z" fill="#63666A"/>
<path d="M70.5964 4.46387H72.3133V16.4817H70.5964V4.46387Z" fill="#63666A"/>
<path d="M77.6141 14.9159C76.7249 14.9159 76.0957 14.5123 75.6853 13.712L80.9999 11.5164L80.8221 11.065C80.4938 10.1758 79.4814 8.53418 77.4226 8.53418C75.3775 8.53418 73.6743 10.1416 73.6743 12.5082C73.6743 14.738 75.3569 16.4822 77.6141 16.4822C79.4336 16.4822 80.4869 15.3673 80.9247 14.7243L79.5704 13.8215C79.1189 14.4781 78.5033 14.9159 77.6141 14.9159ZM77.491 10.0253C78.1955 10.0253 78.7974 10.3878 78.9958 10.9008L75.4048 12.3851C75.4048 10.7161 76.5881 10.0253 77.491 10.0253Z" fill="#63666A"/>
</svg>
