<svg width="82" height="20" viewBox="0 0 82 20" fill="none" xmlns="http://www.w3.org/2000/svg">
<path fill-rule="evenodd" clip-rule="evenodd" d="M42.1157 16.6727C42.8117 16.3466 43.4264 15.8698 43.9154 15.2768L41.8543 13.7659C41.6286 14.1188 41.3182 14.4096 40.9515 14.6118C40.5847 14.8141 40.1731 14.9214 39.7543 14.924C39.2243 14.9356 38.708 14.7552 38.3004 14.4162C37.8929 14.0772 37.6216 13.6023 37.5366 13.079H44.3666V12.1564C44.3666 9.11316 42.6418 7.15139 39.8913 7.15139C36.9483 7.15139 34.5927 9.11469 34.5927 12.1564C34.5927 15.198 36.9487 17.1622 39.8913 17.1622C40.6599 17.166 41.4197 16.9988 42.1157 16.6727ZM41.2966 10.3796C41.3855 10.6012 41.4283 10.8386 41.4227 11.0774H37.5366C37.5771 10.5638 37.8178 10.0868 38.2068 9.74902C38.5958 9.41129 39.1019 9.23995 39.616 9.27194C39.8548 9.26615 40.0922 9.30888 40.3139 9.39755C40.5357 9.48621 40.7371 9.61897 40.906 9.78777C41.0749 9.95657 41.2078 10.1579 41.2966 10.3796Z" fill="#0A66C2"/>
<path fill-rule="evenodd" clip-rule="evenodd" d="M52.8565 16.9161H55.5655L55.5652 2.93573H52.6198V8.39834H52.5812C51.9139 7.47478 50.7764 7.14158 49.5585 7.14158C46.8492 7.14158 45.201 9.5751 45.201 12.2253C45.201 15.111 47.0634 17.1515 49.8908 17.1515C50.4604 17.1448 51.0207 17.0066 51.5282 16.7478C52.0356 16.489 52.4764 16.1165 52.8163 15.6593H52.8565V16.9161ZM48.1461 12.1459C48.1461 10.7145 49.0289 9.73204 50.5002 9.73204C51.9734 9.73204 52.8565 10.712 52.8565 12.1459C52.8565 13.5799 51.9718 14.5607 50.5002 14.5607C49.0286 14.5607 48.1461 13.5774 48.1461 12.1459Z" fill="#0A66C2"/>
<path fill-rule="evenodd" clip-rule="evenodd" d="M59.9749 0.00135256H76.8983V0.000126457C77.2831 -0.00494951 77.6543 0.142966 77.9302 0.411376C78.206 0.679786 78.3641 1.04674 78.3696 1.43161V18.4264C78.3643 18.8114 78.2063 19.1786 77.9304 19.4473C77.6546 19.716 77.2833 19.8642 76.8983 19.8594H59.9749C59.5906 19.8635 59.2204 19.7148 58.9456 19.4461C58.6708 19.1774 58.514 18.8107 58.5094 18.4264V1.43283C58.5141 1.04872 58.6711 0.68219 58.9459 0.413774C59.2207 0.145357 59.5908 -0.00298214 59.9749 0.00135256ZM72.4886 16.9216H75.4312L75.4324 11.7229C75.4324 9.17079 74.8825 7.20902 71.9 7.20902C71.3404 7.18825 70.7857 7.31964 70.2949 7.58921C69.804 7.85878 69.3955 8.25643 69.1128 8.73981H69.0732V7.44474H66.2483V16.9213H69.191V12.2333C69.191 10.9971 69.4254 9.79978 70.9581 9.79978C72.469 9.79978 72.4886 11.2144 72.4886 12.3133V16.9216ZM61.9792 5.86173C62.2601 6.04932 62.5903 6.14942 62.928 6.14936C63.1523 6.14932 63.3743 6.1051 63.5815 6.01925C63.7886 5.93339 63.9769 5.80758 64.1354 5.64898C64.294 5.49038 64.4197 5.3021 64.5055 5.09491C64.5913 4.88771 64.6354 4.66564 64.6354 4.44139C64.6353 4.10365 64.5351 3.77351 64.3474 3.49272C64.1597 3.21193 63.893 2.9931 63.5809 2.86391C63.2688 2.73471 62.9255 2.70096 62.5942 2.76691C62.263 2.83286 61.9588 2.99555 61.72 3.23442C61.4812 3.47328 61.3186 3.77758 61.2528 4.10885C61.187 4.44011 61.2208 4.78346 61.3501 5.09547C61.4794 5.40748 61.6984 5.67414 61.9792 5.86173ZM61.4536 16.9216H64.3993V7.44474H61.4536V16.9216Z" fill="#0A66C2"/>
<path fill-rule="evenodd" clip-rule="evenodd" d="M80.9913 18.7027C80.9449 18.7223 80.8949 18.7322 80.8445 18.7317L80.816 18.7356L81.2418 19.3793H81.0199L80.6241 18.7574L80.6183 18.7497H80.3633V19.3793H80.1558V17.935H80.7075C81.049 17.935 81.2154 18.0668 81.2154 18.3427C81.2183 18.393 81.2109 18.4434 81.1935 18.4907C81.1761 18.538 81.1492 18.5812 81.1144 18.6177C81.0796 18.6541 81.0377 18.6831 80.9913 18.7027ZM80.3639 18.587H80.6033C80.8243 18.587 81.0061 18.568 81.0061 18.3307C81.0061 18.1244 80.8264 18.0987 80.6689 18.0987H80.3639V18.587Z" fill="#0A66C2"/>
<path fill-rule="evenodd" clip-rule="evenodd" d="M79.6782 17.6951C79.9295 17.4401 80.2716 17.295 80.6296 17.2916H80.6557C81.0137 17.295 81.3558 17.4401 81.6071 17.6951C81.8584 17.9501 81.9986 18.2942 81.9968 18.6523C81.9951 19.0103 81.8517 19.3531 81.5979 19.6057C81.3441 19.8582 81.0007 20 80.6426 20C80.2846 20 79.9411 19.8582 79.6873 19.6057C79.4336 19.3531 79.2901 19.0103 79.2884 18.6523C79.2867 18.2942 79.4268 17.9501 79.6782 17.6951ZM79.9666 19.6558C80.1641 19.7831 80.3948 19.8489 80.6296 19.845L80.6299 19.8444H80.6606C80.9686 19.8377 81.2614 19.7089 81.4746 19.4864C81.6877 19.2639 81.8037 18.9658 81.7972 18.6578V18.6379C81.7932 18.403 81.7198 18.1746 81.5861 17.9816C81.4524 17.7885 81.2644 17.6394 81.0459 17.5531C80.8275 17.4669 80.5884 17.4473 80.3588 17.497C80.1293 17.5466 79.9196 17.6632 79.7563 17.8321C79.593 18.0009 79.4835 18.2143 79.4415 18.4454C79.3995 18.6765 79.427 18.9148 79.5205 19.1303C79.6139 19.3457 79.7692 19.5286 79.9666 19.6558Z" fill="#0A66C2"/>
<path d="M3.06312 2.93879H0V16.9231H8.73386V14.0964H3.06312V2.93879Z" fill="#0A66C2"/>
<path d="M13.0307 7.44136H10.0881V16.9179H13.0307V7.44136Z" fill="#0A66C2"/>
<path d="M12.5077 3.01789C12.227 2.83028 11.897 2.73011 11.5594 2.73005C11.3352 2.73001 11.1132 2.77413 10.9061 2.8599C10.6989 2.94567 10.5107 3.0714 10.3522 3.22992C10.1936 3.38844 10.0678 3.57664 9.98204 3.78376C9.89623 3.99089 9.85207 4.2129 9.85207 4.43709C9.85207 4.7747 9.95218 5.10473 10.1397 5.38545C10.3273 5.66616 10.5939 5.88496 10.9058 6.01417C11.2177 6.14338 11.5609 6.1772 11.892 6.11136C12.2232 6.04552 12.5273 5.88297 12.7661 5.64427C13.0048 5.40556 13.1674 5.10142 13.2333 4.77031C13.2992 4.4392 13.2655 4.09598 13.1363 3.78405C13.0072 3.47212 12.7884 3.2055 12.5077 3.01789Z" fill="#0A66C2"/>
<path d="M28.2829 2.93665H25.3402L25.3409 16.9213H28.2835V12.2376H28.3221L31.4459 16.9219H35.1445L31.3635 11.8244L35.2257 7.43707H31.6179L28.2829 11.2941V2.93665Z" fill="#0A66C2"/>
<path d="M17.4883 7.44228H14.6624L14.6645 16.9161H17.6072V12.2299C17.6072 10.994 17.8432 9.7964 19.3728 9.7964C20.8852 9.7964 20.9054 11.2101 20.9054 12.3099V16.9173H23.8481V11.7205C23.8481 9.16986 23.2988 7.20656 20.3147 7.20656C19.7552 7.18546 19.2005 7.31672 18.7097 7.58633C18.219 7.85594 17.8107 8.25378 17.5284 8.73735H17.4883V7.44228Z" fill="#0A66C2"/>
</svg>
